<mxfile host="app.diagrams.net" modified="2023-09-21T13:22:57.119Z" agent="Mozilla/5.0 (Windows NT 10.0; Win64; x64) AppleWebKit/537.36 (KHTML, like Gecko) Chrome/117.0.0.0 Safari/537.36" etag="P578O9bRw-yeXZV_qf2A" version="21.8.0" type="github">
  <diagram name="第 1 页" id="7Xx6FH7bHkI1iPReVcp6">
    <mxGraphModel dx="1111" dy="644" grid="1" gridSize="10" guides="1" tooltips="1" connect="1" arrows="1" fold="1" page="1" pageScale="1" pageWidth="827" pageHeight="1169" background="#000000" math="1" shadow="0">
      <root>
        <mxCell id="0" />
        <mxCell id="1" parent="0" />
        <mxCell id="5JCfvY9aso4xBgZU0NgJ-16" style="edgeStyle=orthogonalEdgeStyle;rounded=1;orthogonalLoop=1;jettySize=auto;html=1;entryX=0.75;entryY=1;entryDx=0;entryDy=0;strokeColor=#FFFFFF;strokeWidth=1;endSize=1;startSize=1;fontFamily=Verdana;exitX=0.5;exitY=0;exitDx=0;exitDy=0;fontColor=#FFFFFF;labelBackgroundColor=#000000;" parent="1" target="5JCfvY9aso4xBgZU0NgJ-5" edge="1">
          <mxGeometry relative="1" as="geometry">
            <Array as="points">
              <mxPoint x="250" y="340" />
              <mxPoint x="280" y="340" />
            </Array>
            <mxPoint x="250" y="390.0000000000001" as="sourcePoint" />
            <mxPoint x="289.9999999999998" y="319.00000000000006" as="targetPoint" />
          </mxGeometry>
        </mxCell>
        <mxCell id="5JCfvY9aso4xBgZU0NgJ-17" style="edgeStyle=orthogonalEdgeStyle;rounded=1;orthogonalLoop=1;jettySize=auto;html=1;exitX=0.5;exitY=0;exitDx=0;exitDy=0;strokeColor=#FFFFFF;strokeWidth=1;endSize=1;startSize=0;targetPerimeterSpacing=0;fontFamily=Verdana;entryX=0.25;entryY=1;entryDx=0;entryDy=0;fontColor=#FFFFFF;labelBackgroundColor=#000000;" parent="1" target="5JCfvY9aso4xBgZU0NgJ-5" edge="1">
          <mxGeometry relative="1" as="geometry">
            <Array as="points">
              <mxPoint x="250" y="340" />
              <mxPoint x="220" y="340" />
            </Array>
            <mxPoint x="250" y="390.0000000000001" as="sourcePoint" />
            <mxPoint x="230.00000000000023" y="319.00000000000006" as="targetPoint" />
          </mxGeometry>
        </mxCell>
        <mxCell id="5JCfvY9aso4xBgZU0NgJ-22" style="edgeStyle=orthogonalEdgeStyle;rounded=1;orthogonalLoop=1;jettySize=auto;html=1;exitX=0.5;exitY=0;exitDx=0;exitDy=0;strokeColor=#FFFFFF;entryX=0;entryY=0.5;entryDx=0;entryDy=0;strokeWidth=1;endSize=1;startSize=1;fontFamily=Verdana;fontColor=#FFFFFF;labelBackgroundColor=#000000;" parent="1" edge="1">
          <mxGeometry relative="1" as="geometry">
            <mxPoint x="189" y="255" as="targetPoint" />
            <mxPoint x="250" y="390.0000000000001" as="sourcePoint" />
            <Array as="points">
              <mxPoint x="250" y="360" />
              <mxPoint x="180" y="360" />
              <mxPoint x="180" y="255" />
            </Array>
          </mxGeometry>
        </mxCell>
        <mxCell id="GAgnMA058pUpvQtoYiCX-12" style="edgeStyle=orthogonalEdgeStyle;rounded=0;orthogonalLoop=1;jettySize=auto;html=1;exitX=0.5;exitY=0;exitDx=0;exitDy=0;entryX=0.5;entryY=1;entryDx=0;entryDy=0;strokeColor=#FFFFFF;endSize=1;startSize=1;fontColor=#FFFFFF;labelBackgroundColor=#000000;" edge="1" parent="1" target="5JCfvY9aso4xBgZU0NgJ-5">
          <mxGeometry relative="1" as="geometry">
            <mxPoint x="250" y="390.0000000000001" as="sourcePoint" />
          </mxGeometry>
        </mxCell>
        <mxCell id="5JCfvY9aso4xBgZU0NgJ-5" value="&lt;font style=&quot;font-size: 14px;&quot;&gt;MHA&lt;/font&gt;" style="rounded=1;whiteSpace=wrap;html=1;fillColor=#000000;strokeWidth=1;strokeColor=#FFFFFF;fontFamily=Verdana;fontColor=#FFFFFF;labelBackgroundColor=#000000;" parent="1" vertex="1">
          <mxGeometry x="190" y="289" width="120" height="30" as="geometry" />
        </mxCell>
        <mxCell id="5JCfvY9aso4xBgZU0NgJ-14" value="" style="endArrow=classic;html=1;rounded=1;strokeColor=#FFFFFF;endSize=1;strokeWidth=1;fontFamily=Verdana;fontColor=#FFFFFF;labelBackgroundColor=#000000;" parent="1" source="5JCfvY9aso4xBgZU0NgJ-5" target="5JCfvY9aso4xBgZU0NgJ-6" edge="1">
          <mxGeometry width="50" height="50" relative="1" as="geometry">
            <mxPoint x="247" y="290" as="sourcePoint" />
            <mxPoint x="300" y="170" as="targetPoint" />
            <Array as="points" />
          </mxGeometry>
        </mxCell>
        <mxCell id="5JCfvY9aso4xBgZU0NgJ-25" style="edgeStyle=orthogonalEdgeStyle;rounded=0;orthogonalLoop=1;jettySize=auto;html=1;exitX=0.5;exitY=0;exitDx=0;exitDy=0;entryX=0.5;entryY=1;entryDx=0;entryDy=0;strokeColor=#FFFFFF;strokeWidth=1;endSize=0;fontFamily=Verdana;fontColor=#FFFFFF;labelBackgroundColor=#000000;" parent="1" source="5JCfvY9aso4xBgZU0NgJ-6" target="5JCfvY9aso4xBgZU0NgJ-23" edge="1">
          <mxGeometry relative="1" as="geometry" />
        </mxCell>
        <mxCell id="5JCfvY9aso4xBgZU0NgJ-42" style="edgeStyle=orthogonalEdgeStyle;rounded=1;orthogonalLoop=1;jettySize=auto;html=1;exitX=0.5;exitY=0;exitDx=0;exitDy=0;entryX=0.25;entryY=1;entryDx=0;entryDy=0;strokeColor=#FFFFFF;endSize=1;strokeWidth=1;curved=1;fontFamily=Verdana;fontColor=#FFFFFF;labelBackgroundColor=#000000;" parent="1" source="5JCfvY9aso4xBgZU0NgJ-6" target="5JCfvY9aso4xBgZU0NgJ-40" edge="1">
          <mxGeometry relative="1" as="geometry">
            <Array as="points">
              <mxPoint x="250" y="230" />
              <mxPoint x="421" y="230" />
            </Array>
          </mxGeometry>
        </mxCell>
        <mxCell id="5JCfvY9aso4xBgZU0NgJ-44" style="rounded=1;orthogonalLoop=1;jettySize=auto;html=1;exitX=0.5;exitY=0;exitDx=0;exitDy=0;entryX=0.75;entryY=1;entryDx=0;entryDy=0;strokeColor=#FFFFFF;strokeWidth=1;endSize=1;startSize=1;fontFamily=Verdana;edgeStyle=orthogonalEdgeStyle;fontColor=#FFFFFF;labelBackgroundColor=#000000;" parent="1" source="5JCfvY9aso4xBgZU0NgJ-6" target="5JCfvY9aso4xBgZU0NgJ-23" edge="1">
          <mxGeometry relative="1" as="geometry">
            <Array as="points">
              <mxPoint x="250" y="219" />
              <mxPoint x="280" y="219" />
            </Array>
          </mxGeometry>
        </mxCell>
        <mxCell id="5JCfvY9aso4xBgZU0NgJ-47" style="edgeStyle=orthogonalEdgeStyle;rounded=1;orthogonalLoop=1;jettySize=auto;html=1;exitX=0.5;exitY=0;exitDx=0;exitDy=0;entryX=0;entryY=0.5;entryDx=0;entryDy=0;strokeColor=#FFFFFF;strokeWidth=1;endSize=1;startSize=1;fontFamily=Verdana;fontColor=#FFFFFF;labelBackgroundColor=#000000;" parent="1" source="5JCfvY9aso4xBgZU0NgJ-6" target="5JCfvY9aso4xBgZU0NgJ-45" edge="1">
          <mxGeometry relative="1" as="geometry">
            <Array as="points">
              <mxPoint x="250" y="230" />
              <mxPoint x="170" y="230" />
              <mxPoint x="170" y="144" />
            </Array>
          </mxGeometry>
        </mxCell>
        <mxCell id="5JCfvY9aso4xBgZU0NgJ-6" value="&lt;font size=&quot;1&quot;&gt;&lt;span style=&quot;font-size: 14px;&quot;&gt;Add &amp;amp; Norm&lt;/span&gt;&lt;/font&gt;" style="rounded=1;whiteSpace=wrap;html=1;fillColor=#000000;strokeWidth=1;strokeColor=#FFFFFF;fontFamily=Verdana;fontColor=#FFFFFF;labelBackgroundColor=#000000;" parent="1" vertex="1">
          <mxGeometry x="190" y="239" width="120" height="30" as="geometry" />
        </mxCell>
        <mxCell id="5JCfvY9aso4xBgZU0NgJ-48" style="edgeStyle=orthogonalEdgeStyle;rounded=1;orthogonalLoop=1;jettySize=auto;html=1;exitX=0.5;exitY=0;exitDx=0;exitDy=0;entryX=0.5;entryY=1;entryDx=0;entryDy=0;strokeColor=#FFFFFF;strokeWidth=1;endSize=1;startSize=1;fontFamily=Verdana;fontColor=#FFFFFF;labelBackgroundColor=#000000;" parent="1" source="5JCfvY9aso4xBgZU0NgJ-23" target="5JCfvY9aso4xBgZU0NgJ-45" edge="1">
          <mxGeometry relative="1" as="geometry" />
        </mxCell>
        <mxCell id="5JCfvY9aso4xBgZU0NgJ-23" value="&lt;font style=&quot;font-size: 14px;&quot;&gt;MHA&lt;/font&gt;" style="rounded=1;whiteSpace=wrap;html=1;fillColor=#000000;strokeWidth=1;strokeColor=#FFFFFF;fontFamily=Verdana;fontColor=#FFFFFF;labelBackgroundColor=#000000;" parent="1" vertex="1">
          <mxGeometry x="190" y="180" width="120" height="30" as="geometry" />
        </mxCell>
        <mxCell id="GAgnMA058pUpvQtoYiCX-13" style="edgeStyle=orthogonalEdgeStyle;rounded=0;orthogonalLoop=1;jettySize=auto;html=1;exitX=0.5;exitY=0;exitDx=0;exitDy=0;entryX=0.5;entryY=1;entryDx=0;entryDy=0;strokeColor=#FFFFFF;endSize=1;startSize=0;fontColor=#FFFFFF;labelBackgroundColor=#000000;" edge="1" parent="1" target="5JCfvY9aso4xBgZU0NgJ-34">
          <mxGeometry relative="1" as="geometry">
            <mxPoint x="451" y="390" as="sourcePoint" />
          </mxGeometry>
        </mxCell>
        <mxCell id="GAgnMA058pUpvQtoYiCX-14" style="edgeStyle=orthogonalEdgeStyle;orthogonalLoop=1;jettySize=auto;html=1;exitX=0.5;exitY=0;exitDx=0;exitDy=0;entryX=0.25;entryY=1;entryDx=0;entryDy=0;rounded=1;strokeColor=#FFFFFF;endSize=1;startSize=1;fontColor=#FFFFFF;labelBackgroundColor=#000000;" edge="1" parent="1" target="5JCfvY9aso4xBgZU0NgJ-34">
          <mxGeometry relative="1" as="geometry">
            <mxPoint x="451" y="390" as="sourcePoint" />
            <Array as="points">
              <mxPoint x="451" y="340" />
              <mxPoint x="421" y="340" />
            </Array>
          </mxGeometry>
        </mxCell>
        <mxCell id="GAgnMA058pUpvQtoYiCX-15" style="edgeStyle=orthogonalEdgeStyle;rounded=1;orthogonalLoop=1;jettySize=auto;html=1;exitX=0.5;exitY=0;exitDx=0;exitDy=0;entryX=0.75;entryY=1;entryDx=0;entryDy=0;strokeColor=#FFFFFF;endSize=1;startSize=0;fontColor=#FFFFFF;labelBackgroundColor=#000000;" edge="1" parent="1" target="5JCfvY9aso4xBgZU0NgJ-34">
          <mxGeometry relative="1" as="geometry">
            <mxPoint x="451" y="390" as="sourcePoint" />
            <Array as="points">
              <mxPoint x="451" y="340" />
              <mxPoint x="481" y="340" />
            </Array>
          </mxGeometry>
        </mxCell>
        <mxCell id="GAgnMA058pUpvQtoYiCX-16" style="edgeStyle=orthogonalEdgeStyle;rounded=1;orthogonalLoop=1;jettySize=auto;html=1;exitX=0.5;exitY=0;exitDx=0;exitDy=0;entryX=1;entryY=0.5;entryDx=0;entryDy=0;strokeColor=#FFFFFF;endSize=1;startSize=1;" edge="1" parent="1" target="5JCfvY9aso4xBgZU0NgJ-39">
          <mxGeometry relative="1" as="geometry">
            <mxPoint x="451" y="390" as="sourcePoint" />
            <Array as="points">
              <mxPoint x="451" y="355" />
              <mxPoint x="520" y="355" />
              <mxPoint x="520" y="254" />
            </Array>
          </mxGeometry>
        </mxCell>
        <mxCell id="5JCfvY9aso4xBgZU0NgJ-34" value="&lt;font style=&quot;font-size: 14px;&quot;&gt;MHA&lt;/font&gt;" style="rounded=1;whiteSpace=wrap;html=1;fillColor=#000000;strokeWidth=1;strokeColor=#FFFFFF;fontFamily=Verdana;labelBackgroundColor=#000000;fontColor=#FFFFFF;" parent="1" vertex="1">
          <mxGeometry x="391" y="289" width="120" height="30" as="geometry" />
        </mxCell>
        <mxCell id="5JCfvY9aso4xBgZU0NgJ-35" value="" style="endArrow=classic;html=1;rounded=1;strokeColor=#FFFFFF;endSize=1;strokeWidth=1;fontFamily=Verdana;fontColor=#FFFFFF;labelBackgroundColor=#000000;" parent="1" source="5JCfvY9aso4xBgZU0NgJ-34" target="5JCfvY9aso4xBgZU0NgJ-39" edge="1">
          <mxGeometry width="50" height="50" relative="1" as="geometry">
            <mxPoint x="448" y="290" as="sourcePoint" />
            <mxPoint x="501" y="170" as="targetPoint" />
            <Array as="points" />
          </mxGeometry>
        </mxCell>
        <mxCell id="5JCfvY9aso4xBgZU0NgJ-38" style="edgeStyle=orthogonalEdgeStyle;rounded=0;orthogonalLoop=1;jettySize=auto;html=1;exitX=0.5;exitY=0;exitDx=0;exitDy=0;entryX=0.5;entryY=1;entryDx=0;entryDy=0;strokeColor=#FFFFFF;strokeWidth=1;endSize=0;fontFamily=Verdana;fontColor=#FFFFFF;labelBackgroundColor=#000000;" parent="1" source="5JCfvY9aso4xBgZU0NgJ-39" target="5JCfvY9aso4xBgZU0NgJ-40" edge="1">
          <mxGeometry relative="1" as="geometry" />
        </mxCell>
        <mxCell id="5JCfvY9aso4xBgZU0NgJ-41" style="rounded=1;orthogonalLoop=1;jettySize=auto;html=1;exitX=0.5;exitY=0;exitDx=0;exitDy=0;entryX=0.25;entryY=1;entryDx=0;entryDy=0;edgeStyle=orthogonalEdgeStyle;strokeColor=#FFFFFF;endSize=1;strokeWidth=1;startSize=1;curved=1;fontFamily=Verdana;fontColor=#FFFFFF;labelBackgroundColor=#000000;" parent="1" source="5JCfvY9aso4xBgZU0NgJ-39" target="5JCfvY9aso4xBgZU0NgJ-23" edge="1">
          <mxGeometry relative="1" as="geometry">
            <Array as="points">
              <mxPoint x="441" y="230" />
              <mxPoint x="215" y="230" />
            </Array>
          </mxGeometry>
        </mxCell>
        <mxCell id="5JCfvY9aso4xBgZU0NgJ-43" style="edgeStyle=orthogonalEdgeStyle;rounded=1;orthogonalLoop=1;jettySize=auto;html=1;exitX=0.5;exitY=0;exitDx=0;exitDy=0;entryX=0.75;entryY=1;entryDx=0;entryDy=0;strokeColor=#FFFFFF;strokeWidth=1;endSize=1;startSize=1;fontFamily=Verdana;fontColor=#FFFFFF;labelBackgroundColor=#000000;" parent="1" source="5JCfvY9aso4xBgZU0NgJ-39" target="5JCfvY9aso4xBgZU0NgJ-40" edge="1">
          <mxGeometry relative="1" as="geometry">
            <Array as="points">
              <mxPoint x="451" y="230" />
              <mxPoint x="481" y="230" />
            </Array>
          </mxGeometry>
        </mxCell>
        <mxCell id="5JCfvY9aso4xBgZU0NgJ-50" style="edgeStyle=orthogonalEdgeStyle;rounded=1;orthogonalLoop=1;jettySize=auto;html=1;exitX=0.5;exitY=0;exitDx=0;exitDy=0;entryX=1;entryY=0.5;entryDx=0;entryDy=0;strokeColor=#FFFFFF;strokeWidth=1;endSize=1;startSize=1;fontFamily=Verdana;fontColor=#FFFFFF;labelBackgroundColor=#000000;" parent="1" source="5JCfvY9aso4xBgZU0NgJ-39" target="5JCfvY9aso4xBgZU0NgJ-46" edge="1">
          <mxGeometry relative="1" as="geometry">
            <Array as="points">
              <mxPoint x="451" y="230" />
              <mxPoint x="530" y="230" />
              <mxPoint x="530" y="144" />
            </Array>
            <mxPoint x="480.0000000000002" y="239.00000000000006" as="sourcePoint" />
            <mxPoint x="540.0000000000002" y="144" as="targetPoint" />
          </mxGeometry>
        </mxCell>
        <mxCell id="5JCfvY9aso4xBgZU0NgJ-39" value="&lt;font size=&quot;1&quot;&gt;&lt;span style=&quot;font-size: 14px;&quot;&gt;Add &amp;amp; Norm&lt;/span&gt;&lt;/font&gt;" style="rounded=1;whiteSpace=wrap;html=1;fillColor=#000000;strokeWidth=1;strokeColor=#FFFFFF;fontFamily=Verdana;fontColor=#FFFFFF;labelBackgroundColor=#000000;" parent="1" vertex="1">
          <mxGeometry x="391" y="239" width="120" height="30" as="geometry" />
        </mxCell>
        <mxCell id="5JCfvY9aso4xBgZU0NgJ-49" style="edgeStyle=orthogonalEdgeStyle;rounded=1;orthogonalLoop=1;jettySize=auto;html=1;exitX=0.5;exitY=0;exitDx=0;exitDy=0;entryX=0.5;entryY=1;entryDx=0;entryDy=0;strokeColor=#FFFFFF;strokeWidth=1;endSize=1;startSize=1;fontFamily=Verdana;fontColor=#FFFFFF;labelBackgroundColor=#000000;" parent="1" source="5JCfvY9aso4xBgZU0NgJ-40" target="5JCfvY9aso4xBgZU0NgJ-46" edge="1">
          <mxGeometry relative="1" as="geometry" />
        </mxCell>
        <mxCell id="5JCfvY9aso4xBgZU0NgJ-40" value="&lt;font style=&quot;font-size: 14px;&quot;&gt;MHA&lt;/font&gt;" style="rounded=1;whiteSpace=wrap;html=1;fillColor=#000000;strokeWidth=1;strokeColor=#FFFFFF;fontFamily=Verdana;fontColor=#FFFFFF;labelBackgroundColor=#000000;" parent="1" vertex="1">
          <mxGeometry x="391" y="180" width="120" height="30" as="geometry" />
        </mxCell>
        <mxCell id="GAgnMA058pUpvQtoYiCX-5" style="edgeStyle=orthogonalEdgeStyle;rounded=0;orthogonalLoop=1;jettySize=auto;html=1;exitX=0.5;exitY=0;exitDx=0;exitDy=0;fontColor=#FFFFFF;targetPerimeterSpacing=5;sourcePerimeterSpacing=6;strokeColor=#FFFFFF;strokeWidth=1;fontFamily=Verdana;labelBackgroundColor=#000000;" edge="1" parent="1" source="5JCfvY9aso4xBgZU0NgJ-45">
          <mxGeometry relative="1" as="geometry">
            <mxPoint x="250" y="80" as="targetPoint" />
            <Array as="points">
              <mxPoint x="250" y="80" />
            </Array>
          </mxGeometry>
        </mxCell>
        <mxCell id="5JCfvY9aso4xBgZU0NgJ-45" value="&lt;font size=&quot;1&quot;&gt;&lt;span style=&quot;font-size: 14px;&quot;&gt;Add &amp;amp; Norm&lt;/span&gt;&lt;/font&gt;" style="rounded=1;whiteSpace=wrap;html=1;fillColor=#000000;strokeWidth=1;strokeColor=#FFFFFF;fontFamily=Verdana;fontColor=#FFFFFF;labelBackgroundColor=#000000;" parent="1" vertex="1">
          <mxGeometry x="190" y="129" width="120" height="30" as="geometry" />
        </mxCell>
        <mxCell id="GAgnMA058pUpvQtoYiCX-7" style="edgeStyle=orthogonalEdgeStyle;rounded=0;orthogonalLoop=1;jettySize=auto;html=1;exitX=0.5;exitY=0;exitDx=0;exitDy=0;strokeColor=#FFFFFF;strokeWidth=1;fontFamily=Verdana;fontColor=#FFFFFF;labelBackgroundColor=#000000;" edge="1" parent="1" source="5JCfvY9aso4xBgZU0NgJ-46">
          <mxGeometry relative="1" as="geometry">
            <mxPoint x="451" y="80" as="targetPoint" />
          </mxGeometry>
        </mxCell>
        <mxCell id="5JCfvY9aso4xBgZU0NgJ-46" value="&lt;font size=&quot;1&quot;&gt;&lt;span style=&quot;font-size: 14px;&quot;&gt;Add &amp;amp; Norm&lt;/span&gt;&lt;/font&gt;" style="rounded=1;whiteSpace=wrap;html=1;fillColor=#000000;strokeWidth=1;strokeColor=#FFFFFF;fontFamily=Verdana;fontColor=#FFFFFF;labelBackgroundColor=#000000;" parent="1" vertex="1">
          <mxGeometry x="391" y="129" width="120" height="30" as="geometry" />
        </mxCell>
        <mxCell id="GAgnMA058pUpvQtoYiCX-17" value="&lt;h2 style=&quot;font-size: 29px;&quot;&gt;&lt;font style=&quot;font-size: 29px;&quot; color=&quot;#ffffff&quot;&gt;$$X_{\textit{kpis}}^{\textit{i}}$$&lt;/font&gt;&lt;/h2&gt;&lt;font style=&quot;font-size: 29px;&quot; color=&quot;#ffffff&quot;&gt;&lt;br&gt;&lt;/font&gt;" style="text;html=1;strokeColor=none;fillColor=none;align=center;verticalAlign=middle;whiteSpace=wrap;rounded=0;" vertex="1" parent="1">
          <mxGeometry x="411" y="400" width="100" height="70" as="geometry" />
        </mxCell>
        <mxCell id="GAgnMA058pUpvQtoYiCX-19" value="&lt;h2 style=&quot;border-color: var(--border-color); font-size: 29px;&quot;&gt;&lt;font color=&quot;#ffffff&quot; style=&quot;border-color: var(--border-color); font-size: 29px;&quot;&gt;$$X_{\textit{log}}^{\textit{i}}$$&lt;/font&gt;&lt;/h2&gt;&lt;font color=&quot;#ffffff&quot; style=&quot;border-color: var(--border-color); font-size: 29px;&quot;&gt;&lt;br style=&quot;border-color: var(--border-color); color: rgb(255, 255, 255); font-family: Helvetica; font-size: 29px; font-style: normal; font-variant-ligatures: normal; font-variant-caps: normal; font-weight: 400; letter-spacing: normal; orphans: 2; text-align: center; text-indent: 0px; text-transform: none; widows: 2; word-spacing: 0px; -webkit-text-stroke-width: 0px; background-color: rgb(251, 251, 251); text-decoration-thickness: initial; text-decoration-style: initial; text-decoration-color: initial;&quot;&gt;&lt;br&gt;&lt;br&gt;&lt;/font&gt;" style="text;whiteSpace=wrap;html=1;" vertex="1" parent="1">
          <mxGeometry x="220" y="360" width="80" height="100" as="geometry" />
        </mxCell>
      </root>
    </mxGraphModel>
  </diagram>
</mxfile>
